<svg width="80" height="80" viewBox="0 0 80 80" fill="none" xmlns="http://www.w3.org/2000/svg">
<g clip-path="url(#clip0_5_364)">
<path d="M23.4667 14.4C23.2889 14.0444 22.9778 13.8222 22.5333 13.7333C22.0889 13.6444 21.6889 13.6889 21.3333 13.8666C20.9778 14.2222 20.7111 14.5778 20.5333 14.9333C20.3556 15.2889 20.4 15.6889 20.6667 16.1333C20.9333 16.5778 21.2889 16.8 21.7333 16.8C22.1778 16.8 22.5778 16.7111 22.9333 16.5333C23.2889 16.3555 23.5111 16.0444 23.6 15.6C23.6889 15.1555 23.6444 14.7555 23.4667 14.4ZM79.2 26.6666L40.8 2.93331C40.2667 2.57775 39.7333 2.57775 39.2 2.93331L26.4 10.9333C25.8667 11.1111 25.5556 11.4222 25.4667 11.8666C25.3778 12.3111 25.4667 12.7111 25.7333 13.0666C26 13.4222 26.3556 13.6444 26.8 13.7333C27.2444 13.8222 27.6444 13.7778 28 13.6L40 6.13331L75.4667 28L40 49.8666L20.8 38.1333L37.0667 28.5333C37.9556 29.2444 38.9778 29.6 40.1333 29.6C41.2889 29.6 42.3556 29.1111 43.3333 28.1333C44.3111 27.1555 44.8 26.0444 44.8 24.8C44.8 23.5555 44.3111 22.4889 43.3333 21.6C42.3556 20.7111 41.2444 20.2666 40 20.2666C38.7556 20.2666 37.6444 20.7111 36.6667 21.6C35.6889 22.4889 35.2 23.5555 35.2 24.8L35.4667 25.8666L17.8667 36.2666L4.53333 28L16.8 20.2666C17.1556 20.0889 17.3778 19.7778 17.4667 19.3333C17.5556 18.8889 17.5111 18.4889 17.3333 18.1333C17.1556 17.7778 16.8444 17.5555 16.4 17.4666C15.9556 17.3778 15.5556 17.4222 15.2 17.6L0.8 26.6666C0.266667 27.0222 0 27.4666 0 28C0 28.5333 0.266667 28.9778 0.8 29.3333L14.9333 37.8666L13.0667 38.9333C11.6444 39.8222 10.5333 40.9778 9.73333 42.4C8.93333 43.8222 8.53333 45.3333 8.53333 46.9333V49.6C7.64444 49.9555 6.88889 50.4889 6.26667 51.2C5.64444 51.9111 5.33333 52.8 5.33333 53.8666V56.5333C4.08889 57.7778 3.46667 59.3778 3.46667 61.3333V75.7333C3.46667 76.2666 3.6 76.6666 3.86667 76.9333C4.13333 77.2 4.53333 77.3333 5.06667 77.3333H14.9333C15.4667 77.3333 15.8667 77.2 16.1333 76.9333C16.4 76.6666 16.5333 76.2666 16.5333 75.7333V61.3333C16.5333 59.3778 15.9111 57.7778 14.6667 56.5333V53.8666C14.6667 52.8 14.3556 51.9111 13.7333 51.2C13.1111 50.4889 12.3556 49.9555 11.4667 49.6V46.9333C11.4667 45.8666 11.7333 44.8889 12.2667 44C12.8 43.1111 13.6 42.4 14.6667 41.8666L16.5333 40.5333V55.7333C16.5333 56.0889 16.7111 56.4444 17.0667 56.8C17.4222 57.1555 17.7778 57.3333 18.1333 57.3333C22.0444 57.3333 25.7778 58.0889 29.3333 59.6C32.8889 61.1111 36.0889 63.2889 38.9333 66.1333C39.2889 66.3111 39.6444 66.4 40 66.4C40.3556 66.4 40.7111 66.3111 41.0667 66.1333C43.9111 63.2889 47.1111 61.1111 50.6667 59.6C54.2222 58.0889 57.9556 57.3333 61.8667 57.3333C62.2222 57.3333 62.5778 57.1555 62.9333 56.8C63.2889 56.4444 63.4667 56.0889 63.4667 55.7333V53.0666C63.4667 52.5333 63.2889 52.1333 62.9333 51.8666C62.5778 51.6 62.2222 51.4666 61.8667 51.4666C61.5111 51.4666 61.1556 51.6 60.8 51.8666C60.4444 52.1333 60.2667 52.5333 60.2667 53.0666V54.1333C53.3333 54.4889 47.1111 56.8889 41.6 61.3333V58.1333C41.6 57.7778 41.4222 57.4222 41.0667 57.0666C40.7111 56.7111 40.3556 56.5333 40 56.5333C39.6444 56.5333 39.2889 56.7111 38.9333 57.0666C38.5778 57.4222 38.4 57.7778 38.4 58.1333V61.3333C32.8889 56.8889 26.6667 54.4889 19.7333 54.1333V41.0666L39.2 53.0666C39.3778 53.2444 39.6444 53.3333 40 53.3333C40.3556 53.3333 40.6222 53.2444 40.8 53.0666L60.2667 41.0666V42.6666C60.2667 43.2 60.4444 43.6 60.8 43.8666C61.1556 44.1333 61.5111 44.2666 61.8667 44.2666C62.2222 44.2666 62.5778 44.1333 62.9333 43.8666C63.2889 43.6 63.4667 43.2 63.4667 42.6666V39.2L79.2 29.3333C79.7333 28.9778 80 28.5333 80 28C80 27.4666 79.7333 27.0222 79.2 26.6666ZM40 23.2C40.3556 23.2 40.7111 23.3778 41.0667 23.7333C41.4222 24.0889 41.6 24.4889 41.6 24.9333C41.6 25.3778 41.4222 25.7333 41.0667 26C40.7111 26.2666 40.3556 26.4 40 26.4C39.6444 26.4 39.2889 26.2666 38.9333 26C38.5778 25.7333 38.4 25.3778 38.4 24.9333C38.4 24.4889 38.5778 24.0889 38.9333 23.7333C39.2889 23.3778 39.6444 23.2 40 23.2ZM8.53333 53.8666C8.53333 53.5111 8.66667 53.1555 8.93333 52.8C9.2 52.4444 9.55556 52.2666 10 52.2666C10.4444 52.2666 10.8 52.4444 11.0667 52.8C11.3333 53.1555 11.4667 53.5111 11.4667 53.8666V54.6666H8.53333V53.8666ZM13.3333 61.3333V74.1333H6.66667V61.3333C6.66667 60.2666 6.97778 59.4222 7.6 58.8C8.22222 58.1778 9.02222 57.8666 10 57.8666C10.9778 57.8666 11.7778 58.1778 12.4 58.8C13.0222 59.4222 13.3333 60.2666 13.3333 61.3333ZM62.9333 46.4C62.5778 46.0444 62.2222 45.8666 61.8667 45.8666C61.5111 45.8666 61.1556 46.0444 60.8 46.4C60.4444 46.7555 60.2667 47.1555 60.2667 47.6C60.2667 48.0444 60.4444 48.4 60.8 48.6666C61.1556 48.9333 61.5111 49.0666 61.8667 49.0666C62.2222 49.0666 62.5778 48.9333 62.9333 48.6666C63.2889 48.4 63.4667 48.0444 63.4667 47.6C63.4667 47.1555 63.2889 46.7555 62.9333 46.4Z" fill="white"/>
</g>
<defs>
<clipPath id="clip0_5_364">
<rect width="80" height="80" fill="white" transform="matrix(1 0 0 -1 0 80)"/>
</clipPath>
</defs>
</svg>
