<svg width="138" height="23" viewBox="0 0 138 23" fill="none" xmlns="http://www.w3.org/2000/svg">
<path d="M11.2788 0L13.8111 7.79349H22.0057L15.3761 12.6101L17.9084 20.4036L11.2788 15.587L4.64931 20.4036L7.18157 12.6101L0.552026 7.79349H8.74659L11.2788 0Z" fill="#FAB437"/>
<path d="M40.4712 0L43.0034 7.79349H51.198L44.5684 12.6101L47.1007 20.4036L40.4712 15.587L33.8416 20.4036L36.3739 12.6101L29.7443 7.79349H37.9389L40.4712 0Z" fill="#FAB437"/>
<path d="M69 0L71.6812 7.79349H80.3578L73.3383 12.6101L76.0195 20.4036L69 15.587L61.9805 20.4036L64.6617 12.6101L57.6422 7.79349H66.3188L69 0Z" fill="#FAB437"/>
<path d="M97.5288 0L100.061 7.79349H108.256L101.626 12.6101L104.158 20.4036L97.5288 15.587L90.8993 20.4036L93.4316 12.6101L86.802 7.79349H94.9966L97.5288 0Z" fill="#FAB437"/>
<path d="M126.719 0L129.251 7.79349H137.446L130.816 12.6101L133.348 20.4036L126.719 15.587L120.089 20.4036L122.622 12.6101L115.992 7.79349H124.187L126.719 0Z" fill="#FAB437"/>
</svg>
