<svg width="60" height="60" viewBox="0 0 60 60" fill="none" xmlns="http://www.w3.org/2000/svg">
<rect width="60" height="60" rx="10" fill="url(#paint0_linear_32_25)"/>
<path d="M30.5 17.8L17 24.1L20.6 25.72V28.78C19.52 29.14 18.8 30.22 18.8 31.3C18.8 32.38 19.52 33.46 20.6 33.82V34L18.98 37.78C18.44 39.4 18.8 41.2 21.5 41.2C24.2 41.2 24.56 39.4 24.02 37.78L22.4 34C23.48 33.46 24.2 32.56 24.2 31.3C24.2 30.04 23.48 29.14 22.4 28.78V26.62L30.5 30.4L44 24.1L30.5 17.8ZM38.42 29.5L30.32 33.1L26 31.12V31.3C26 32.56 25.46 33.64 24.56 34.54L25.64 37.06V37.24C25.82 37.96 26 38.68 25.82 39.4C27.08 39.94 28.52 40.3 30.32 40.3C36.26 40.3 38.42 36.7 38.42 34.9V29.5Z" fill="white"/>
<defs>
<linearGradient id="paint0_linear_32_25" x1="-1.5" y1="20.4" x2="61.4249" y2="20.6084" gradientUnits="userSpaceOnUse">
<stop stop-color="#0379EE"/>
<stop offset="1" stop-color="#6283F5"/>
</linearGradient>
</defs>
</svg>
