<svg width="50" height="50" viewBox="0 0 50 50" fill="none" xmlns="http://www.w3.org/2000/svg">
<rect width="50" height="50" rx="15" fill="url(#paint0_linear_372_1667)"/>
<path d="M22.375 19.25H34.0938M22.375 25.5H29.4062M22.375 31.75H34.0938M18.4688 31.75C18.4688 31.9572 18.3864 32.1559 18.2399 32.3024C18.0934 32.4489 17.8947 32.5312 17.6875 32.5312C17.4803 32.5312 17.2816 32.4489 17.1351 32.3024C16.9886 32.1559 16.9062 31.9572 16.9062 31.75C16.9062 31.5428 16.9886 31.3441 17.1351 31.1976C17.2816 31.0511 17.4803 30.9688 17.6875 30.9688C17.8947 30.9688 18.0934 31.0511 18.2399 31.1976C18.3864 31.3441 18.4688 31.5428 18.4688 31.75ZM18.4688 25.5C18.4688 25.7072 18.3864 25.9059 18.2399 26.0524C18.0934 26.1989 17.8947 26.2812 17.6875 26.2812C17.4803 26.2812 17.2816 26.1989 17.1351 26.0524C16.9886 25.9059 16.9062 25.7072 16.9062 25.5C16.9062 25.2928 16.9886 25.0941 17.1351 24.9476C17.2816 24.8011 17.4803 24.7188 17.6875 24.7188C17.8947 24.7188 18.0934 24.8011 18.2399 24.9476C18.3864 25.0941 18.4688 25.2928 18.4688 25.5ZM18.4688 19.25C18.4688 19.4572 18.3864 19.6559 18.2399 19.8024C18.0934 19.9489 17.8947 20.0312 17.6875 20.0312C17.4803 20.0312 17.2816 19.9489 17.1351 19.8024C16.9886 19.6559 16.9062 19.4572 16.9062 19.25C16.9062 19.0428 16.9886 18.8441 17.1351 18.6976C17.2816 18.5511 17.4803 18.4688 17.6875 18.4688C17.8947 18.4688 18.0934 18.5511 18.2399 18.6976C18.3864 18.8441 18.4688 19.0428 18.4688 19.25Z" stroke="white" stroke-width="2" stroke-linecap="round"/>
<defs>
<linearGradient id="paint0_linear_372_1667" x1="-1.25" y1="17" x2="51.1874" y2="17.1736" gradientUnits="userSpaceOnUse">
<stop stop-color="#0379EE"/>
<stop offset="1" stop-color="#6283F5"/>
</linearGradient>
</defs>
</svg>
