<svg width="50" height="50" viewBox="0 0 50 50" fill="none" xmlns="http://www.w3.org/2000/svg">
<rect width="50" height="50" rx="15" fill="url(#paint0_linear_372_1664)"/>
<g clip-path="url(#clip0_372_1664)">
<path d="M17.6667 24.0834C17.9003 24.0836 18.125 24.1731 18.2949 24.3335C18.4648 24.4939 18.5671 24.7131 18.5807 24.9463C18.5944 25.1796 18.5186 25.4092 18.3686 25.5884C18.2186 25.7676 18.0059 25.8827 17.7739 25.9103L17.6667 25.9167H16.75C16.5164 25.9164 16.2916 25.827 16.1217 25.6666C15.9519 25.5062 15.8496 25.287 15.8359 25.0538C15.8222 24.8205 15.8981 24.5909 16.0481 24.4117C16.198 24.2325 16.4107 24.1174 16.6428 24.0898L16.75 24.0834H17.6667ZM25 15.8334C25.2245 15.8334 25.4412 15.9158 25.609 16.065C25.7768 16.2142 25.884 16.4198 25.9103 16.6428L25.9167 16.75V17.6667C25.9164 17.9003 25.8269 18.1251 25.6666 18.295C25.5062 18.4649 25.287 18.5671 25.0537 18.5808C24.8205 18.5945 24.5908 18.5186 24.4117 18.3686C24.2325 18.2187 24.1173 18.006 24.0898 17.774L24.0833 17.6667V16.75C24.0833 16.5069 24.1799 16.2738 24.3518 16.1019C24.5237 15.93 24.7569 15.8334 25 15.8334ZM33.25 24.0834C33.4836 24.0836 33.7084 24.1731 33.8783 24.3335C34.0481 24.4939 34.1504 24.7131 34.1641 24.9463C34.1778 25.1796 34.1019 25.4092 33.9519 25.5884C33.802 25.7676 33.5893 25.8827 33.3573 25.9103L33.25 25.9167H32.3333C32.0997 25.9164 31.875 25.827 31.7051 25.6666C31.5352 25.5062 31.433 25.287 31.4193 25.0538C31.4056 24.8205 31.4815 24.5909 31.6314 24.4117C31.7814 24.2325 31.9941 24.1174 32.2261 24.0898L32.3333 24.0834H33.25ZM18.4853 18.4853C18.6431 18.3275 18.8531 18.2326 19.0759 18.2186C19.2987 18.2046 19.5189 18.2724 19.6953 18.4092L19.7814 18.4853L20.4231 19.127C20.5875 19.2919 20.6829 19.5133 20.69 19.7461C20.6972 19.9788 20.6154 20.2056 20.4614 20.3803C20.3073 20.555 20.0926 20.6645 19.8607 20.6866C19.6289 20.7087 19.3973 20.6417 19.2131 20.4992L19.1269 20.4231L18.4853 19.7815C18.3134 19.6096 18.2169 19.3764 18.2169 19.1334C18.2169 18.8903 18.3134 18.6572 18.4853 18.4853ZM30.2186 18.4853C30.3835 18.3209 30.6049 18.2254 30.8377 18.2183C31.0705 18.2112 31.2972 18.293 31.4719 18.447C31.6466 18.601 31.7561 18.8158 31.7782 19.0476C31.8003 19.2795 31.7333 19.511 31.5908 19.6953L31.5148 19.7815L30.8731 20.4231C30.7081 20.5875 30.4868 20.683 30.254 20.6901C30.0212 20.6972 29.7944 20.6154 29.6197 20.4614C29.4451 20.3074 29.3356 20.0926 29.3135 19.8608C29.2914 19.6289 29.3584 19.3974 29.5008 19.2131L29.5769 19.127L30.2186 18.4853ZM26.8333 30.5C27.0765 30.5 27.3096 30.5966 27.4815 30.7685C27.6534 30.9404 27.75 31.1736 27.75 31.4167C27.75 32.1461 27.4603 32.8455 26.9445 33.3613C26.4288 33.877 25.7293 34.1667 25 34.1667C24.2707 34.1667 23.5712 33.877 23.0555 33.3613C22.5397 32.8455 22.25 32.1461 22.25 31.4167C22.25 31.1922 22.3325 30.9755 22.4817 30.8077C22.6309 30.6399 22.8364 30.5327 23.0594 30.5065L23.1667 30.5H26.8333ZM25 19.5C26.1544 19.5 27.2794 19.8632 28.2159 20.5382C29.1524 21.2132 29.8527 22.1657 30.2178 23.2608C30.5828 24.3559 30.594 25.5381 30.2498 26.64C29.9056 27.7418 29.2235 28.7074 28.3 29.4C28.1737 29.4949 28.0249 29.5556 27.8683 29.576L27.75 29.5834H22.25C22.0517 29.5834 21.8587 29.519 21.7 29.4C20.7765 28.7074 20.0944 27.7418 19.7502 26.64C19.406 25.5381 19.4172 24.3559 19.7822 23.2608C20.1473 22.1657 20.8476 21.2132 21.7841 20.5382C22.7206 19.8632 23.8456 19.5 25 19.5Z" fill="white"/>
</g>
<defs>
<linearGradient id="paint0_linear_372_1664" x1="-1.25" y1="17" x2="51.1874" y2="17.1736" gradientUnits="userSpaceOnUse">
<stop stop-color="#0379EE"/>
<stop offset="1" stop-color="#6283F5"/>
</linearGradient>
<clipPath id="clip0_372_1664">
<rect width="22" height="22" fill="white" transform="translate(14 14)"/>
</clipPath>
</defs>
</svg>
