<?xml version="1.0" standalone="no"?>
<!DOCTYPE svg PUBLIC "-//W3C//DTD SVG 20010904//EN"
 "http://www.w3.org/TR/2001/REC-SVG-20010904/DTD/svg10.dtd">
<svg version="1.0" xmlns="http://www.w3.org/2000/svg"
 width="407.000000pt" height="407.000000pt" viewBox="0 0 407.000000 407.000000"
 preserveAspectRatio="xMidYMid meet">
<metadata>
Created by potrace 1.14, written by Peter Selinger 2001-2017
</metadata>
<g transform="translate(0.000000,407.000000) scale(0.100000,-0.100000)"
fill="#000000" stroke="none">
<path d="M2010 4026 c-13 -47 -23 -53 -90 -47 -8 1 1 -13 21 -30 l37 -31 -14
-44 c-7 -24 -12 -44 -10 -44 1 0 17 11 36 25 l33 25 35 -27 35 -26 -6 24 c-4
13 -10 34 -13 46 -4 16 2 27 25 44 41 30 39 40 -6 37 -37 -3 -38 -2 -54 45
l-16 48 -13 -45z"/>
<path d="M1569 3940 c-13 -43 -16 -45 -51 -45 -46 1 -47 -7 -8 -35 20 -14 29
-28 26 -38 -3 -10 -8 -30 -12 -47 l-7 -30 35 27 34 26 34 -26 33 -26 -6 29
c-3 17 -8 37 -12 46 -4 12 3 24 24 39 41 28 39 38 -5 35 -28 -2 -37 2 -44 19
-29 77 -25 75 -41 26z"/>
<path d="M2418 3928 c-13 -42 -14 -43 -57 -42 l-44 0 37 -31 c34 -28 36 -33
27 -59 -20 -51 -14 -59 22 -32 l33 25 29 -24 c41 -33 45 -31 30 18 l-13 42 36
32 37 32 -30 -1 c-60 -1 -64 1 -75 42 -6 22 -12 40 -14 40 -2 0 -10 -19 -18
-42z"/>
<path d="M2809 3709 c-14 -43 -15 -44 -58 -44 l-43 0 36 -31 36 -31 -15 -42
c-8 -22 -11 -41 -8 -41 3 0 20 11 37 24 l32 24 29 -24 c42 -33 46 -30 29 18
l-15 42 38 33 38 32 -42 -5 c-40 -4 -54 3 -59 31 -1 6 -6 21 -11 34 -9 24 -11
23 -24 -20z"/>
<path d="M1192 3696 c-12 -45 -12 -46 -54 -46 l-43 -1 34 -30 c32 -30 33 -33
22 -69 -15 -52 -14 -56 12 -33 39 35 46 36 83 8 l35 -27 -7 29 c-4 15 -11 35
-15 45 -7 12 0 24 29 47 l37 30 -43 1 c-37 0 -44 3 -52 28 -24 65 -25 66 -38
18z"/>
<path d="M1989 3472 c-13 -10 -32 -21 -41 -25 -23 -8 -23 -20 2 -42 11 -10 20
-24 20 -31 0 -19 -21 -29 -30 -14 -11 18 -28 4 -38 -33 -19 -68 13 -142 43
-101 13 18 14 18 20 1 4 -9 2 -24 -5 -32 -14 -17 -66 -20 -75 -5 -4 6 -8 50
-10 97 -2 70 -6 89 -21 100 -54 39 -115 -30 -83 -95 7 -15 14 -34 14 -42 1 -9
7 -26 14 -38 10 -19 8 -26 -13 -47 -14 -14 -32 -25 -41 -25 -19 0 -20 26 0 34
23 8 19 62 -7 86 -12 11 -22 33 -23 51 -2 38 -16 47 -71 45 -53 -3 -64 -12
-39 -30 15 -10 19 -28 21 -77 1 -35 2 -70 3 -77 0 -7 21 -27 46 -44 l45 -32 0
-73 0 -73 -52 -41 c-86 -68 -211 -118 -336 -134 -61 -7 -75 7 -37 37 42 33 65
60 65 77 -1 13 -4 12 -16 -4 -11 -14 -18 -16 -21 -7 -3 6 -21 12 -40 12 -34 0
-35 -1 -20 -18 13 -14 14 -21 5 -30 -18 -18 -28 -15 -37 11 -11 28 11 73 39
82 11 4 29 0 42 -9 44 -31 51 -16 14 27 -21 23 -41 47 -46 53 -7 10 -132 46
-165 49 -5 0 -32 -9 -60 -22 -27 -13 -58 -23 -67 -23 -10 0 -39 -20 -65 -45
-25 -25 -52 -45 -60 -45 -14 0 -19 -19 -27 -99 -7 -68 10 -102 64 -126 44 -20
90 -83 90 -123 0 -28 7 -28 31 1 l19 22 20 -24 c17 -19 20 -36 19 -83 -3 -72
6 -85 16 -22 7 48 41 94 70 94 19 0 20 -16 1 -23 -15 -6 -46 -99 -46 -137 0
-12 -14 -54 -31 -92 -17 -39 -34 -95 -38 -125 -8 -54 2 -71 19 -30 7 17 9 11
9 -30 1 -29 5 -53 11 -53 20 0 26 35 22 120 -3 78 -1 94 21 141 22 47 35 104
36 162 1 9 5 17 10 17 17 0 32 -97 36 -228 1 -72 6 -135 10 -141 9 -16 15
-274 6 -289 -5 -9 -15 -4 -35 19 l-28 31 -96 -6 c-53 -3 -105 -6 -116 -8 -30
-5 -36 31 -15 97 24 76 57 253 65 353 4 42 12 96 19 119 11 35 10 45 -2 62 -8
12 -18 21 -22 21 -4 0 -11 -42 -14 -92 -9 -121 -14 -153 -43 -273 -13 -55 -29
-131 -35 -170 -6 -38 -13 -84 -16 -102 -5 -29 -2 -33 30 -46 19 -8 58 -38 88
-67 30 -28 60 -55 67 -59 8 -4 20 -39 27 -77 16 -82 31 -124 44 -124 12 0 7
30 -9 61 -7 12 -10 41 -8 64 3 23 1 51 -5 60 -8 16 -4 15 29 -5 61 -36 58 -30
70 -137 5 -40 3 -58 -10 -78 -16 -24 -17 -25 -42 -9 -19 13 -28 14 -37 5 -9
-9 -9 -14 1 -20 7 -4 12 -14 10 -22 -2 -8 3 -13 11 -11 10 2 12 -4 7 -24 -6
-21 -4 -25 8 -21 21 8 20 4 -5 -45 -24 -46 -22 -111 3 -147 14 -19 15 -16 15
42 1 84 25 172 73 271 67 137 50 192 -68 215 -34 7 -62 16 -62 20 0 5 34 23
75 41 66 29 78 38 77 60 -1 30 -13 124 -16 129 -2 3 -7 47 -10 96 -4 50 -9
115 -11 145 -3 30 -7 105 -10 165 -3 61 -8 134 -11 164 -9 95 7 107 103 75 59
-20 59 -20 43 -39 -7 -9 -11 -18 -8 -20 3 -3 310 -4 683 -3 640 3 678 4 662
20 -17 16 -14 18 45 36 35 11 67 17 72 14 8 -4 2 -239 -9 -372 -2 -25 -6 -90
-10 -145 -3 -55 -8 -128 -11 -162 -6 -82 10 -114 81 -154 30 -17 55 -35 55
-39 0 -11 -30 -20 -81 -25 -75 -7 -104 -58 -94 -166 4 -42 15 -78 30 -104 59
-97 79 -149 79 -207 1 -83 17 -76 30 14 7 44 -5 78 -35 107 -19 17 -20 21 -6
21 20 0 22 11 5 28 -9 9 -8 12 5 12 9 0 17 7 17 15 0 8 5 15 10 15 15 0 12 27
-4 33 -7 3 -26 -8 -42 -24 -15 -16 -31 -29 -36 -29 -4 0 -8 33 -8 74 0 54 4
77 16 86 9 8 14 25 12 43 -3 26 1 32 27 40 17 5 38 16 48 25 19 17 37 8 19
-10 -8 -8 -7 -17 5 -35 15 -22 14 -27 -5 -67 -24 -48 -27 -66 -11 -66 17 0 39
68 42 130 1 40 6 60 14 60 7 0 34 23 60 51 27 27 64 60 83 71 19 12 40 27 46
35 12 14 14 4 -41 268 -39 189 -42 210 -50 342 -9 128 4 151 128 227 27 17 28
19 24 96 -3 76 -16 110 -40 110 -7 0 -27 18 -47 40 -21 25 -47 43 -64 46 -16
3 -41 11 -57 19 -40 21 -87 24 -139 10 -25 -7 -56 -15 -70 -19 -14 -3 -34 -19
-44 -37 -10 -17 -28 -41 -39 -52 -28 -28 -5 -35 29 -8 20 16 31 18 45 11 24
-14 41 -46 37 -72 -4 -25 -17 -31 -38 -18 -13 8 -12 11 4 23 19 14 19 15 -3
22 -14 4 -33 2 -48 -6 -20 -11 -26 -11 -33 1 -5 8 -12 11 -16 7 -4 -3 14 -28
40 -53 25 -26 44 -50 41 -53 -4 -3 -32 -5 -63 -5 -92 0 -310 81 -369 136 -20
19 -23 32 -23 99 0 75 1 79 28 93 53 27 65 51 69 129 2 53 7 75 20 84 23 18
10 26 -43 29 -55 2 -76 -15 -67 -56 4 -23 1 -31 -13 -37 -11 -3 -22 -11 -26
-17 -13 -19 -9 -66 7 -72 18 -7 20 -34 2 -34 -7 0 -23 7 -36 16 -23 17 -24 24
-7 93 3 14 10 29 16 35 21 21 6 89 -24 108 -20 13 -46 8 -63 -12 -12 -14 -18
-41 -19 -97 -1 -43 -2 -84 -3 -90 -1 -18 -56 -16 -75 2 -8 9 -13 22 -9 31 5
13 7 13 23 -1 24 -22 28 -19 40 25 16 58 -12 147 -35 110 -9 -15 -25 -12 -31
4 -3 8 4 25 15 37 25 27 26 33 6 49 -8 7 -15 9 -15 5 0 -3 -12 3 -26 14 -32
26 -35 26 -65 3z m66 -42 c4 -6 11 -8 16 -5 5 3 6 -1 3 -9 -8 -20 -18 -20 -34
-1 -12 14 -15 14 -36 0 -29 -19 -31 -19 -37 -1 -4 10 -1 13 8 10 7 -3 18 4 25
15 9 17 15 19 30 11 10 -6 22 -15 25 -20z m-204 -77 c6 -16 3 -29 -10 -45 -16
-19 -21 -20 -35 -9 -16 14 -22 62 -9 75 14 13 46 1 54 -21z m393 11 c17 -44
-10 -88 -39 -64 -15 13 -21 61 -8 73 12 13 41 7 47 -9z m-187 -21 c9 -16 18
-29 19 -31 1 -2 12 1 23 8 18 9 21 8 22 -12 3 -51 -5 -68 -23 -50 -15 15 -48
-3 -48 -27 0 -10 9 -30 21 -45 40 -50 109 -23 109 44 0 18 3 21 9 11 11 -17
-4 -56 -33 -88 -22 -26 -16 -29 15 -10 17 10 23 10 26 0 3 -7 11 -13 19 -13
13 0 13 4 1 28 -16 30 -15 59 3 76 8 8 9 6 4 -7 -12 -34 5 -85 36 -104 41 -24
18 -34 -39 -16 -28 9 -98 16 -181 18 l-135 4 -28 31 c-32 36 -30 53 2 21 27
-27 65 -27 91 1 24 26 26 61 5 78 -12 10 -19 10 -27 2 -20 -20 -28 -13 -28 22
0 35 13 55 25 36 11 -17 24 -11 40 20 20 38 49 39 72 3z m-361 -48 c0 -24 6
-40 15 -43 17 -6 29 -22 29 -41 0 -10 -8 -7 -26 10 l-27 24 6 -23 c7 -30 -14
-24 -30 9 -16 31 -16 82 -1 97 20 20 33 7 34 -33z m682 33 c24 -24 8 -120 -23
-132 -8 -3 -10 4 -7 20 5 30 -1 30 -28 2 -17 -18 -20 -19 -20 -5 0 9 11 24 25
33 19 12 23 22 19 40 -11 43 9 67 34 42z m-521 -110 c-3 -7 -5 -2 -5 12 0 14
2 19 5 13 2 -7 2 -19 0 -25z m-26 -18 c1 -14 -1 -38 -5 -55 -7 -28 -7 -29 8
-11 14 17 18 18 42 6 25 -14 24 -14 -43 -30 -79 -19 -97 -15 -54 11 33 20 46
54 38 95 -2 14 -1 22 4 17 5 -5 10 -20 10 -33z m159 -121 c0 -34 -3 -39 -24
-39 -13 0 -38 -3 -56 -6 -31 -7 -32 -6 -18 15 11 20 11 24 -6 37 -11 8 -25 14
-30 13 -6 0 -1 -5 12 -11 32 -16 27 -25 -13 -20 -23 3 -32 8 -28 16 4 6 -1 5
-10 -3 -9 -7 -17 -19 -17 -27 0 -22 21 -27 34 -8 7 9 18 14 24 10 25 -15 10
-33 -35 -45 -79 -20 -78 -20 -78 23 0 37 3 40 40 53 41 14 112 27 172 30 32 2
33 1 33 -38z m43 -10 c-6 -21 -7 -21 -20 -4 -10 15 -10 21 -1 26 18 11 27 2
21 -22z m87 7 c0 -21 -21 -31 -30 -15 -5 7 -6 17 -4 21 9 14 34 9 34 -6z m101
4 c20 -11 27 -40 9 -40 -5 0 -10 5 -10 10 0 17 -48 11 -52 -7 -3 -14 -4 -15
-16 -1 -10 13 -10 19 3 32 19 19 38 20 66 6z m-404 -32 c-3 -8 -6 -5 -6 6 -1
11 2 17 5 13 3 -3 4 -12 1 -19z m-646 -49 c13 -7 36 -12 51 -10 16 1 35 -4 43
-13 13 -13 13 -15 -5 -21 -11 -3 -33 -22 -49 -42 -19 -23 -35 -34 -45 -30 -9
4 -15 3 -15 -1 3 -21 -3 -23 -21 -7 -19 17 -20 17 -20 0 0 -11 -12 -31 -26
-46 -21 -22 -30 -25 -58 -19 -27 6 -35 4 -45 -12 -11 -18 -21 -19 -68 -1 -7 3
-13 -2 -13 -11 0 -9 11 -21 25 -26 33 -12 32 -26 -2 -33 -45 -9 -59 13 -58 85
2 56 5 64 33 88 18 15 32 31 32 37 0 19 32 37 62 35 21 -2 40 6 64 27 35 32
58 32 115 0z m978 17 c73 -17 131 -38 131 -47 0 -6 -7 -8 -16 -5 -49 19 -182
47 -236 49 -36 2 -98 -4 -143 -14 -44 -10 -91 -21 -105 -24 -14 -3 -7 3 16 14
22 10 60 21 84 25 24 3 45 8 48 11 6 6 188 -1 221 -9z m851 -16 c25 -22 40
-29 61 -25 24 4 32 -1 53 -31 13 -20 34 -42 45 -51 17 -11 22 -24 21 -61 -1
-26 0 -56 0 -66 1 -30 -24 -50 -54 -42 -33 8 -33 20 -1 34 37 17 34 43 -4 32
-21 -6 -35 -4 -50 7 -14 9 -32 12 -50 8 -23 -5 -33 -1 -50 21 -11 15 -21 35
-21 46 0 18 -1 18 -16 4 -14 -14 -17 -14 -40 0 -13 9 -34 30 -45 45 -11 16
-29 29 -40 29 -10 0 -19 4 -19 9 0 17 28 32 52 27 14 -2 40 6 63 20 51 30 55
30 95 -6z m-1191 -86 c21 -7 -21 -48 -84 -81 -30 -15 -51 -31 -49 -35 6 -9 60
19 114 58 20 15 45 24 60 22 24 -3 26 -9 21 -48 0 -5 -21 -21 -46 -36 -25 -14
-45 -27 -45 -29 0 -6 31 2 95 23 60 21 83 17 72 -12 -14 -35 -117 -71 -322
-111 -59 -11 -229 -5 -280 11 -81 24 -120 27 -154 10 -36 -19 -51 -20 -51 -3
0 26 19 38 71 43 30 3 63 11 74 18 11 7 47 16 80 19 61 6 105 18 162 43 17 8
35 14 40 14 5 0 45 25 88 54 79 55 93 59 154 40z m507 -5 c27 -30 86 -63 188
-104 117 -47 133 -57 79 -51 -57 7 -280 93 -320 124 -40 30 -41 39 -5 45 15 2
30 5 33 6 3 0 14 -8 25 -20z m-351 -40 c62 -46 170 -101 267 -133 73 -25 240
-56 268 -50 8 1 28 3 43 3 45 1 22 19 -41 31 -31 6 -79 18 -107 27 -80 25
-274 134 -275 156 0 4 17 7 39 7 29 0 47 -8 72 -30 48 -44 88 -62 229 -108
151 -49 220 -58 220 -27 0 18 46 20 87 3 15 -6 45 -12 65 -13 41 -2 92 -30 83
-45 -9 -14 -27 -12 -65 6 -31 16 -36 15 -118 -9 -81 -25 -95 -26 -281 -23
-108 2 -208 6 -222 9 -60 15 -113 38 -162 71 -64 43 -187 145 -187 155 0 19
39 5 85 -30z m154 -3 c67 -55 176 -108 284 -137 26 -7 47 -17 47 -22 0 -4 -4
-6 -8 -3 -4 2 -29 7 -55 10 -113 13 -222 57 -355 143 -53 34 -55 37 -33 43 46
11 74 3 120 -34z m819 -80 c21 -17 56 -44 80 -59 23 -15 40 -32 37 -38 -4 -5
-17 -1 -32 11 -14 11 -31 20 -37 20 -6 0 -22 9 -36 20 -14 11 -32 20 -41 20
-23 0 -63 46 -55 65 7 19 30 9 84 -39z m-1718 21 c0 -20 -29 -43 -72 -56 -20
-7 -42 -18 -48 -26 -6 -7 -26 -17 -43 -21 -17 -3 -42 -13 -54 -21 -21 -14 -23
-14 -23 1 0 9 22 27 52 42 28 14 74 41 101 60 51 35 87 44 87 21z m1270 -103
c0 -2 -7 -4 -15 -4 -8 0 -15 4 -15 10 0 5 7 7 15 4 8 -4 15 -8 15 -10z m-1379
-34 c17 -10 18 -13 4 -26 -8 -9 -15 -30 -15 -47 l0 -32 -27 30 c-16 17 -24 32
-20 34 5 2 12 14 17 27 11 27 14 28 41 14z m1864 -15 c0 -12 9 -22 25 -26 15
-4 18 -7 8 -8 -9 -1 -29 -13 -43 -28 l-26 -28 3 34 c1 20 -3 36 -10 39 -16 5
-16 29 1 35 23 10 42 2 42 -18z m64 -82 c6 -12 5 -26 -6 -47 -13 -25 -13 -33
-3 -50 7 -11 14 -50 16 -86 2 -36 6 -83 10 -105 3 -22 8 -53 10 -70 3 -16 17
-84 31 -150 38 -179 39 -179 -29 -171 -53 5 -133 9 -176 7 -16 -1 -26 -10 -34
-32 -10 -28 -12 -29 -26 -15 -17 17 -18 33 -8 191 3 55 10 172 14 260 7 136
23 228 36 214 2 -2 7 -29 10 -59 4 -30 16 -70 28 -90 18 -29 22 -53 24 -140 2
-108 15 -167 35 -154 7 4 9 25 6 58 l-6 51 19 -40 19 -40 0 55 c0 41 -7 70
-29 114 -16 32 -34 84 -40 115 -20 99 -31 132 -51 152 -17 17 -17 20 -4 25 29
12 69 -46 79 -111 6 -39 17 -24 15 20 -3 72 8 115 31 115 11 0 23 -8 29 -17z"/>
<path d="M2000 3326 c-18 -49 11 -104 38 -69 22 30 12 93 -14 93 -8 0 -19 -11
-24 -24z"/>
<path d="M2010 3211 c0 -5 -12 -24 -26 -41 l-27 -31 54 2 c70 3 72 5 43 34
-13 13 -24 29 -24 35 0 5 -4 10 -10 10 -5 0 -10 -4 -10 -9z"/>
<path d="M1924 3068 c2 -7 11 -13 21 -13 10 0 19 6 21 13 1 7 0 8 -3 2 -2 -5
-11 -10 -18 -10 -7 0 -16 5 -18 10 -3 6 -4 5 -3 -2z"/>
<path d="M1024 2936 c-3 -9 -15 -16 -25 -16 -26 0 -24 -12 7 -40 29 -28 43
-17 39 31 -3 36 -12 48 -21 25z"/>
<path d="M3012 2925 c-7 -14 -12 -34 -12 -45 0 -17 4 -18 29 -9 32 11 62 39
43 39 -6 0 -20 9 -30 20 -19 20 -19 20 -30 -5z"/>
<path d="M1293 2501 c-5 -3 -8 -80 -8 -171 2 -133 5 -173 19 -204 43 -97 71
-368 52 -496 -4 -25 -35 -126 -68 -225 -58 -170 -61 -186 -64 -290 -4 -124 13
-204 63 -297 35 -66 124 -155 189 -190 48 -26 224 -78 268 -78 11 -1 53 -16
91 -35 l70 -34 -180 2 -180 2 -22 55 c-22 56 -48 80 -91 80 l-22 0 20 -40 c11
-21 20 -49 20 -61 0 -14 18 -39 47 -66 52 -47 41 -59 -15 -16 -20 15 -65 42
-101 61 -36 19 -56 32 -44 29 13 -3 25 -1 29 4 6 10 -89 109 -104 109 -6 0
-12 6 -15 14 -4 9 10 5 39 -11 42 -24 44 -24 44 -5 0 13 -17 31 -49 50 -27 17
-57 44 -67 61 -10 17 -22 31 -26 31 -4 0 -6 -42 -5 -92 4 -105 20 -147 82
-211 43 -44 95 -72 162 -87 65 -15 169 -23 198 -16 23 6 22 7 -21 49 l-45 42
181 -3 c147 -2 180 0 174 10 -9 14 -8 14 63 -41 l42 -32 58 44 c88 67 166 102
298 132 154 35 233 73 310 150 107 107 150 232 142 410 -4 102 -9 124 -65 290
-33 99 -64 198 -67 220 -7 44 -7 175 -1 215 3 14 7 45 10 70 13 100 29 160 51
196 9 14 14 70 15 185 1 90 2 171 1 180 -1 16 -60 17 -736 16 -404 0 -738 -3
-742 -6z m1411 -360 c-48 -108 -69 -236 -68 -406 0 -92 23 -222 44 -250 13
-18 61 -168 76 -235 67 -316 -91 -553 -421 -630 -105 -24 -175 -54 -257 -111
l-59 -40 -52 34 c-86 57 -130 75 -252 107 -189 48 -309 128 -373 248 -84 158
-82 318 8 558 60 160 69 210 65 354 -2 69 -6 143 -10 165 -13 90 -25 145 -39
179 -8 19 -10 36 -5 38 5 2 311 3 679 4 604 0 670 -1 664 -15z"/>
<path d="M2510 2049 c-38 -8 -69 -40 -71 -73 -1 -11 -2 -59 -4 -106 -4 -112
-3 -106 -21 -124 -34 -34 -114 -11 -114 33 0 16 9 43 54 168 9 23 13 48 11 56
-17 44 -131 62 -203 31 -97 -40 -145 -150 -81 -185 29 -15 103 -3 124 21 22
24 14 45 -25 68 -29 18 -30 19 -11 36 20 18 69 24 91 11 16 -10 8 -58 -19
-116 -28 -61 -52 -131 -46 -137 2 -3 15 -5 27 -6 16 -1 23 -7 24 -23 1 -13 2
-28 3 -33 2 -18 65 -50 96 -50 17 0 54 7 84 15 l53 14 -6 -32 c-11 -57 -60
-141 -95 -164 -39 -26 -93 -30 -111 -8 -7 9 -11 17 -9 18 2 1 16 9 31 16 75
38 17 103 -82 92 -107 -12 -115 -127 -14 -177 27 -13 61 -19 109 -19 59 0 78
4 117 28 96 56 145 171 133 310 -3 45 -8 84 -11 88 -2 4 -7 43 -10 87 l-7 81
32 18 c17 10 31 25 31 34 0 23 -39 37 -80 28z"/>
<path d="M1683 2036 c-124 -39 -189 -131 -197 -277 -6 -115 25 -213 92 -289
98 -112 250 -127 347 -35 60 56 40 126 -39 141 -82 15 -152 -26 -122 -71 7
-11 27 -24 45 -29 51 -15 33 -56 -24 -56 -72 0 -118 77 -129 213 -4 42 -2 39
-33 53 -16 6 -20 13 -14 23 13 20 105 18 155 -4 30 -13 41 -14 47 -4 4 7 5 17
3 23 -2 6 11 20 31 30 19 11 35 23 35 28 0 10 4 10 -61 -2 -87 -17 -149 -22
-186 -15 -33 6 -35 8 -29 37 3 17 17 46 31 64 31 41 31 44 0 44 -23 0 -24 2
-13 20 31 49 134 74 212 52 40 -11 43 -27 7 -42 -63 -26 -47 -77 27 -87 50 -7
95 10 112 42 25 47 -27 116 -109 144 -44 14 -135 13 -188 -3z"/>
<path d="M1935 1347 c-33 -5 -109 -10 -170 -11 -106 -2 -149 -8 -189 -28 -15
-8 -11 -13 32 -33 48 -22 51 -25 43 -52 -11 -36 1 -67 33 -89 36 -23 80 -12
140 34 27 20 57 43 67 51 18 13 19 8 19 -113 0 -113 -2 -126 -17 -127 -91 -3
-121 -22 -125 -79 l-3 -35 100 2 c126 2 236 2 345 0 127 -3 124 -6 111 75 -2
16 -64 39 -96 36 -19 -1 -37 1 -42 5 -7 7 -13 247 -6 247 1 0 33 -22 70 -49
38 -26 78 -51 91 -54 58 -14 112 40 98 98 -6 22 -1 28 39 47 25 12 45 25 45
28 0 4 -30 16 -67 26 -53 16 -78 18 -113 11 -29 -6 -69 -5 -115 2 -38 6 -102
11 -141 10 -40 -1 -76 0 -80 3 -5 2 -36 0 -69 -5z m157 -70 c-13 -17 -13 -318
0 -334 8 -10 -3 -13 -53 -13 -38 0 -59 4 -51 9 10 6 13 45 10 178 l-3 170 53
1 c40 0 51 -2 44 -11z m-292 -31 c0 -10 -33 -36 -46 -36 -17 0 -19 26 -1 33
15 7 47 8 47 3z m558 -13 c7 -24 -28 -26 -50 -4 l-20 22 33 -3 c18 -2 34 -9
37 -15z"/>
<path d="M2057 808 c-42 -31 -21 -111 28 -102 19 3 23 1 19 -11 -5 -12 -15
-14 -43 -10 l-36 6 24 -20 c45 -40 81 -17 88 56 5 42 2 54 -16 72 -24 24 -40
26 -64 9z m48 -48 c0 -28 -29 -40 -38 -15 -9 22 3 46 22 43 10 -2 16 -13 16
-28z"/>
<path d="M1823 791 c-27 -22 -29 -31 -8 -31 12 0 15 -13 15 -55 0 -42 3 -55
15 -55 15 0 17 13 17 100 0 69 -3 71 -39 41z"/>
<path d="M1910 791 c-23 -44 3 -98 41 -88 12 3 19 0 19 -10 0 -12 -7 -14 -35
-9 -39 8 -42 5 -19 -18 27 -28 63 -20 79 16 15 37 13 92 -5 113 -18 22 -67 19
-80 -4z m70 -29 c-1 -18 -20 -34 -34 -29 -16 6 -22 38 -10 50 8 7 44 -10 44
-21z"/>
<path d="M2210 802 c0 -5 -10 -14 -22 -20 l-23 -11 22 -7 c17 -5 22 -13 21
-38 -1 -61 2 -76 17 -76 13 0 15 13 13 77 -2 50 -7 78 -15 81 -7 2 -13 -1 -13
-6z"/>
<path d="M3390 2467 c0 -3 11 -30 25 -60 41 -89 42 -134 6 -214 -17 -37 -33
-84 -35 -103 -5 -47 18 -121 60 -197 l35 -62 -78 77 c-43 42 -92 85 -110 94
l-31 18 -6 -113 -7 -112 65 -146 c83 -186 93 -223 72 -274 -12 -28 -20 -36
-33 -31 -9 4 -19 2 -23 -3 -3 -6 -6 9 -7 33 -3 81 -54 166 -99 166 -37 0 -38
-19 -4 -67 54 -75 70 -162 40 -217 -21 -41 -38 -39 -38 4 -1 48 -14 101 -55
215 l-31 90 -8 -42 c-13 -77 -44 -129 -117 -199 -42 -40 -75 -82 -82 -101 -17
-52 -13 -167 9 -273 24 -118 24 -117 0 -220 -36 -150 -95 -258 -167 -302 -65
-40 -11 -31 129 23 149 58 197 64 315 44 116 -19 182 10 231 101 16 30 17 35
3 49 -23 23 -123 55 -172 55 -44 0 -134 -37 -157 -65 -11 -13 -3 -15 56 -16
38 0 89 0 114 1 25 1 41 -2 37 -7 -5 -4 -67 -8 -138 -8 -104 -1 -132 -4 -145
-16 -14 -15 -11 -16 33 -14 26 1 35 1 18 -2 -16 -2 -43 -9 -60 -16 l-30 -12
50 -6 50 -6 -62 0 c-35 0 -63 3 -63 7 0 13 83 125 109 148 35 30 70 39 176 47
180 12 224 39 312 188 26 45 69 102 95 127 l47 45 -197 0 c-132 0 -204 -4
-217 -12 -34 -20 -79 -75 -135 -163 -50 -80 -188 -270 -197 -270 -8 0 31 66
97 164 92 136 140 235 147 302 5 47 10 57 38 74 29 18 56 62 69 115 3 11 3 -1
1 -28 -3 -26 -11 -60 -20 -76 -29 -58 -56 -134 -43 -124 25 20 83 34 163 39
184 12 225 32 233 113 4 48 3 51 -19 51 -33 -1 -109 -36 -110 -52 -1 -7 -2
-22 -3 -33 0 -11 -11 -21 -24 -25 -30 -7 -122 0 -122 9 0 5 19 16 43 27 23 10
69 34 102 54 33 20 80 44 105 55 211 90 244 196 135 428 l-27 59 -25 -44 c-33
-57 -50 -76 -91 -95 -50 -24 -80 -71 -103 -164 -37 -151 -66 -221 -97 -238
-16 -9 -16 -4 5 37 25 52 80 251 89 322 20 165 76 257 151 248 29 -3 33 -1 33
18 0 29 -33 53 -65 46 -24 -4 -41 -21 -72 -68 -14 -22 1 35 37 136 33 91 33
198 1 263 -27 56 -97 131 -163 176 -27 18 -48 30 -48 28z m123 -139 c3 -7 12
-29 21 -49 14 -35 14 -38 -15 -99 -29 -63 -36 -120 -13 -127 5 -2 18 12 27 32
9 19 24 35 33 35 12 0 10 -7 -10 -31 -14 -17 -27 -39 -27 -50 -1 -10 -2 -28
-3 -38 -1 -24 -16 -40 -16 -18 0 9 -10 35 -22 58 -25 49 -27 96 -5 130 22 34
31 102 19 138 -10 29 0 45 11 19z m-124 -514 c28 -57 29 -58 39 -34 8 19 9 10
5 -37 -5 -59 -4 -63 15 -63 20 0 20 -2 6 -35 -7 -19 -14 -43 -14 -54 0 -11 -3
-22 -7 -24 -5 -3 -8 18 -8 46 1 51 -23 137 -65 232 -29 67 -6 43 29 -31z m-21
-51 c22 -31 45 -103 32 -103 -4 0 -10 13 -13 29 -3 15 -22 49 -42 75 -25 32
-30 44 -16 37 11 -6 28 -23 39 -38z m372 -153 c-5 -17 -23 -55 -40 -85 -17
-30 -26 -55 -20 -55 20 0 54 22 83 53 18 20 27 25 27 15 0 -22 -42 -61 -95
-89 -55 -29 -57 -39 -7 -33 34 5 32 3 -15 -14 -29 -10 -80 -40 -113 -66 -33
-26 -60 -43 -60 -38 0 5 9 17 20 27 50 45 99 168 94 235 -2 26 -1 30 5 15 9
-21 8 -54 -4 -120 -7 -37 -3 -33 54 54 34 52 61 103 61 113 0 10 4 18 9 18 6
0 6 -12 1 -30z m-600 -321 c0 -29 -9 -63 -25 -95 -33 -66 -32 -72 11 -34 42
37 58 32 23 -8 -33 -38 -46 -63 -55 -108 -7 -37 -6 -38 12 -24 10 8 29 26 42
40 34 36 15 3 -33 -55 -22 -28 -51 -78 -63 -113 -15 -39 -29 -62 -38 -62 -11
0 -13 6 -9 19 12 39 16 68 17 141 1 90 -8 153 -28 195 l-15 30 20 -25 c28 -34
51 -112 51 -173 0 -28 3 -47 7 -43 4 3 7 44 8 89 1 61 6 90 19 110 21 31 16
65 -16 110 l-21 29 22 -14 c12 -7 24 -22 27 -32 6 -17 7 -17 15 -3 5 8 10 34
11 57 2 55 18 29 18 -31z m270 -288 c-11 -23 -19 -41 -17 -41 17 0 119 36 147
52 l35 20 -33 -30 c-19 -16 -55 -35 -80 -42 -72 -18 -102 -31 -133 -58 -53
-44 -6 -56 89 -23 28 10 52 16 52 14 0 -13 -115 -54 -144 -52 -23 2 -53 -7
-95 -30 -66 -35 -95 -37 -39 -3 54 34 80 68 93 124 13 52 13 52 14 15 l1 -38
24 18 c13 10 41 41 62 70 21 29 40 51 42 49 2 -2 -6 -22 -18 -45z m-237 -428
c-7 -2 -19 -2 -25 0 -7 3 -2 5 12 5 14 0 19 -2 13 -5z"/>
<path d="M610 2408 c-71 -48 -139 -119 -166 -175 -38 -78 -36 -151 10 -282 41
-118 45 -140 16 -94 -32 53 -83 69 -113 35 -10 -10 -17 -26 -17 -35 0 -13 6
-15 29 -11 71 15 137 -75 156 -211 12 -86 63 -279 89 -338 16 -38 20 -54 11
-51 -29 11 -76 122 -95 225 -17 91 -46 136 -106 170 -39 22 -63 46 -87 85
l-34 54 -32 -71 c-99 -221 -71 -309 124 -398 39 -18 81 -39 95 -47 14 -9 60
-32 102 -52 43 -20 78 -40 78 -44 0 -16 -141 -12 -151 4 -4 6 -4 18 -2 29 9
32 -109 88 -127 59 -13 -21 -4 -79 16 -101 31 -34 58 -41 234 -55 41 -3 94
-14 117 -24 l41 -18 -35 81 c-19 45 -37 100 -39 122 -2 28 -1 32 4 15 13 -47
42 -90 73 -105 18 -10 29 -23 28 -33 -9 -62 48 -187 152 -335 68 -97 104 -157
95 -157 -3 0 -12 12 -20 28 -8 15 -34 47 -56 72 -23 25 -75 95 -115 156 -73
110 -130 172 -163 176 -9 1 -103 2 -208 3 l-190 0 47 -42 c25 -24 70 -82 99
-130 76 -129 136 -168 270 -178 176 -14 192 -19 246 -77 42 -45 84 -109 78
-120 -3 -4 -33 -7 -67 -6 l-62 1 55 6 55 7 -35 17 c-27 13 -29 16 -10 13 24
-5 24 -4 6 9 -22 17 -30 17 -171 16 -55 -1 -106 2 -113 7 -8 5 32 8 98 8 61
-1 113 1 116 5 5 9 -62 53 -101 66 -40 14 -120 9 -174 -11 -53 -19 -71 -33
-71 -54 0 -26 50 -90 87 -113 32 -20 43 -21 121 -14 168 15 209 12 307 -27
108 -42 192 -65 202 -54 5 5 -3 15 -17 24 -79 52 -142 162 -179 315 -17 69
-19 96 -12 125 24 88 38 190 35 251 -5 86 -19 115 -93 180 -76 68 -116 139
-121 216 -1 18 -2 17 -14 -5 -26 -48 -75 -205 -80 -255 -2 -27 -5 -52 -5 -54
-1 -2 -10 4 -21 14 -45 40 -32 152 28 234 36 49 33 74 -7 64 -48 -12 -89 -76
-95 -149 -3 -39 -16 -77 -16 -47 0 6 -8 10 -17 9 -11 0 -24 12 -35 32 -15 32
-15 37 3 89 10 30 46 115 79 188 l60 133 -6 110 -7 111 -57 -39 c-31 -21 -80
-64 -108 -95 -29 -31 -52 -54 -52 -52 0 3 18 39 41 81 58 108 62 164 19 257
-41 90 -41 138 -1 222 16 34 29 62 28 64 -1 1 -22 -12 -47 -29z m-65 -125
c-15 -43 -10 -84 16 -135 24 -47 24 -81 0 -127 -10 -20 -23 -47 -29 -61 -10
-24 -11 -23 -11 13 -1 42 -13 70 -44 105 -11 12 -16 22 -11 22 15 0 29 -13 51
-49 19 -31 22 -32 31 -15 13 25 7 55 -23 114 -14 27 -25 59 -25 70 0 18 44
100 54 100 2 0 -2 -17 -9 -37z m137 -470 c-36 -71 -62 -163 -63 -221 l-1 -57
-12 45 c-7 25 -18 55 -24 67 -10 19 -9 20 8 16 22 -6 23 -1 22 77 0 39 1 42 9
21 9 -23 11 -21 40 39 16 34 32 60 35 57 3 -3 -3 -22 -14 -44z m23 -65 c-19
-23 -42 -63 -50 -88 l-15 -45 6 45 c7 48 31 90 67 115 33 23 32 19 -8 -27z
m-310 -288 c47 -66 51 -63 26 20 -8 24 -4 80 5 89 2 2 4 -13 5 -35 0 -21 2
-47 4 -56 7 -37 56 -130 84 -160 17 -18 28 -34 26 -36 -1 -2 -30 17 -63 43
-33 26 -79 53 -103 60 l-44 14 35 0 35 1 -62 36 c-62 35 -97 69 -87 86 3 5 15
-3 26 -17 17 -22 67 -55 83 -55 11 0 5 28 -9 39 -19 16 -56 96 -55 118 0 10
11 -4 23 -32 13 -27 45 -79 71 -115z m534 -162 c3 -58 8 -62 37 -30 28 30 28
25 -1 -31 -19 -37 -19 -38 0 -74 14 -25 19 -56 20 -108 1 -93 11 -106 17 -23
3 40 15 82 32 116 14 28 28 52 30 52 1 0 -6 -26 -16 -57 -26 -76 -27 -224 -2
-305 3 -10 1 -18 -5 -18 -15 0 -37 38 -51 86 -7 23 -30 61 -52 85 -21 24 -44
53 -49 64 -6 11 5 3 25 -18 19 -21 37 -33 40 -28 12 18 -26 106 -62 145 -36
39 -36 39 -7 22 17 -10 40 -28 53 -39 28 -26 28 -18 -3 43 -18 35 -25 65 -25
105 0 64 15 75 19 13z m-268 -308 c35 -47 69 -79 82 -80 4 0 8 15 8 33 1 25 4
20 11 -21 9 -49 15 -57 69 -99 32 -26 59 -48 59 -50 0 -2 -30 12 -67 31 -44
22 -83 34 -111 34 -23 1 -62 11 -87 23 -52 26 -54 36 -4 15 35 -15 66 -19 109
-17 24 2 24 3 -15 37 -21 19 -51 37 -65 40 -80 16 -128 36 -156 66 -16 18 -20
25 -9 16 26 -22 81 -45 135 -57 40 -9 41 -9 28 12 -19 30 -42 84 -31 72 5 -5
25 -30 44 -55z m229 -415 c0 -7 -30 -13 -34 -7 -3 4 4 9 15 9 10 1 19 0 19 -2z
m80 1 c0 -9 -30 -14 -35 -6 -4 6 3 10 14 10 12 0 21 -2 21 -4z"/>
<path d="M2851 771 c-18 -32 -38 -52 -81 -81 -19 -14 -40 -31 -47 -40 -9 -10
-12 -11 -13 -2 0 10 -6 9 -27 -2 -22 -11 -33 -30 -51 -86 -13 -40 -22 -74 -20
-76 11 -11 52 34 78 86 20 40 36 59 54 64 13 3 39 18 57 33 29 24 30 25 18 4
-8 -12 -29 -31 -47 -43 -38 -24 -86 -83 -78 -97 3 -5 15 -7 26 -4 36 9 21 -5
-17 -18 -21 -6 -66 -31 -101 -55 -35 -24 -67 -44 -72 -44 -19 0 -9 15 24 38
32 22 41 39 82 164 5 15 1 15 -36 6 -31 -8 -44 -18 -51 -37 -5 -14 -17 -43
-26 -63 l-16 -38 -188 0 c-114 0 -190 -4 -194 -10 -4 -7 59 -10 182 -10 l188
-1 -42 -40 c-52 -49 -45 -54 70 -46 148 11 235 52 295 139 42 60 54 110 50
203 -3 74 -4 78 -17 56z"/>
<path d="M1340 632 c0 -47 83 -166 102 -146 9 8 -42 139 -59 152 -24 17 -43
15 -43 -6z"/>
<path d="M764 242 c-87 -124 -160 -228 -162 -232 -1 -4 12 -6 30 -5 28 2 106
7 313 20 22 1 96 6 165 9 69 4 145 9 170 11 42 4 127 9 315 20 44 2 126 7 183
10 l102 6 0 -30 0 -31 130 0 130 0 0 31 0 31 113 -7 c61 -4 132 -8 157 -10 25
-2 99 -6 165 -10 66 -4 140 -8 165 -10 25 -2 101 -6 170 -10 69 -4 142 -8 162
-10 21 -2 98 -6 173 -10 74 -4 141 -8 147 -9 7 0 15 2 18 6 3 3 -67 108 -155
231 -126 177 -163 224 -179 221 -10 -2 -21 -5 -23 -8 -6 -5 25 -61 125 -231
39 -66 69 -121 68 -123 -2 -1 -57 10 -122 27 -286 71 -422 89 -639 86 -198 -4
-274 -18 -416 -76 -37 -15 -71 -24 -75 -20 -33 28 -192 75 -294 88 -97 12
-375 8 -455 -6 -38 -6 -83 -14 -100 -17 -27 -4 -278 -62 -349 -80 l-28 -7 28
49 c15 27 61 105 101 173 41 68 72 129 70 134 -2 6 -12 11 -23 12 -16 1 -57
-50 -180 -223z"/>
<path d="M993 345 c4 -11 887 -14 915 -3 9 4 15 7 12 9 -3 1 -213 2 -468 3
-303 1 -461 -2 -459 -9z"/>
<path d="M2130 349 c0 -4 6 -9 13 -11 10 -3 845 -3 901 1 11 0 16 4 12 8 -9
10 -926 11 -926 2z"/>
</g>
</svg>
